<?xml version="1.0" encoding="utf-8"?>
<svg viewBox="0 0 500 500" xmlns="http://www.w3.org/2000/svg">
  <defs>
    <clipPath id="clip0">
      <rect width="24" height="24" fill="white" transform="translate(0.000244141)"/>
    </clipPath>
  </defs>
  <g clip-path="url(#clip0)" transform="matrix(20.721886, 0, 0, 20.721886, 1.022746, 1.027296)" style="">
    <path fill-rule="evenodd" clip-rule="evenodd" d="M13.5002 1.5L15.0002 0H22.5002L24.0002 1.5V9L22.5002 10.5H15.0002L13.5002 9V1.5ZM15.0002 1.5V9H22.5002V1.5H15.0002ZM0.000244141 15V6L1.50024 4.5H9.00024L10.5002 6V13.5H18.0002L19.5002 15V22.5L18.0002 24H10.5002H9.00024H1.50024L0.000244141 22.5V15ZM9.00024 13.5V6H1.50024V13.5H9.00024ZM9.00024 15H1.50024V22.5H9.00024V15ZM10.5002 22.5H18.0002V15H10.5002V22.5Z" style="fill: rgb(66, 66, 66);"/>
  </g>
  <path d="M 156.066 167.493 L 156.066 246.08 C 156.066 256.11 148.87 260.33 140.083 255.487 L 112.898 240.337 C 109.991 238.747 105.288 238.747 102.382 240.337 L 75.194 255.487 C 66.408 260.33 59.213 256.11 59.213 246.08 L 59.213 167.493 C 59.213 155.663 68.9 145.977 80.73 145.977 L 134.548 145.977 C 146.379 145.977 156.066 155.663 156.066 167.493 Z" stroke-linecap="round" stroke-linejoin="round" style="paint-order: stroke; stroke: rgb(166, 171, 166); fill: rgb(148, 187, 153); stroke-opacity: 0; stroke-width: 0px;"/>
  <g opacity="0.4" transform="matrix(6.917812, 0, 0, 6.917812, 45.377327, 105.302032)" style=""/>
  <path d="M 156.84 355.343 L 156.84 433.928 C 156.84 443.959 149.646 448.18 140.859 443.336 L 113.673 428.186 C 110.767 426.595 106.063 426.595 103.158 428.186 L 75.971 443.336 C 67.184 448.18 59.989 443.959 59.989 433.928 L 59.989 355.343 C 59.989 343.513 69.676 333.827 81.505 333.827 L 135.325 333.827 C 147.154 333.827 156.84 343.513 156.84 355.343 Z" stroke-linecap="round" stroke-linejoin="round" style="paint-order: stroke; stroke: rgb(166, 171, 166); fill: rgb(148, 187, 153); stroke-opacity: 0; stroke-width: 0px;"/>
  <g opacity="0.4" transform="matrix(6.917812, 0, 0, 6.917812, 46.153549, 293.151123)" style=""/>
  <path d="M 344.69 355.343 L 344.69 433.928 C 344.69 443.959 337.495 448.18 328.708 443.336 L 301.522 428.186 C 298.616 426.595 293.912 426.595 291.006 428.186 L 263.82 443.336 C 255.033 448.18 247.837 443.959 247.837 433.928 L 247.837 355.343 C 247.837 343.513 257.525 333.827 269.355 333.827 L 323.173 333.827 C 335.003 333.827 344.69 343.513 344.69 355.343 Z" stroke-linecap="round" stroke-linejoin="round" style="paint-order: stroke; stroke: rgb(166, 171, 166); fill: rgb(148, 187, 153); stroke-opacity: 0; stroke-width: 0px;"/>
  <g opacity="0.4" transform="matrix(6.917812, 0, 0, 6.917812, 234.00267, 293.151123)" style=""/>
  <path d="M 438.614 74.345 L 438.614 152.93 C 438.614 162.961 431.419 167.181 422.633 162.337 L 395.447 147.188 C 392.54 145.598 387.837 145.598 384.931 147.188 L 357.745 162.337 C 348.958 167.181 341.763 162.961 341.763 152.93 L 341.763 74.345 C 341.763 62.515 351.448 52.828 363.278 52.828 L 417.098 52.828 C 428.928 52.828 438.614 62.515 438.614 74.345 Z" stroke-linecap="round" stroke-linejoin="round" style="paint-order: stroke; stroke: rgb(166, 171, 166); stroke-opacity: 0; stroke-width: 0px; fill: rgb(228, 171, 171);"/>
  <g opacity="0.4" transform="matrix(6.917812, 0, 0, 6.917812, 327.926788, 12.15353)" style=""/>
</svg>